<svg xmlns="http://www.w3.org/2000/svg" xmlns:xlink="http://www.w3.org/1999/xlink" width="53" height="52" version="1.1" viewBox="0 0 53 52"><title>Prev</title><desc>Created with Sketch.</desc><g id="Events" fill="none" fill-rule="evenodd" stroke="none" stroke-width="1"><g id="Assets" transform="translate(-44.000000, -609.000000)"><g id="Elements-/-Richdata-/-Music-controls" transform="translate(44.000000, 537.000000)"><g id="Prev" transform="translate(0.000000, 72.000000)"><rect id="Rectangle-5" width="53" height="52" x="0" y="0" fill="#D8D8D8" fill-opacity=".4" rx="26"/><path id="Path-2" fill="#8C8B8B" d="M11.6517648,24.0134117 L21.6620705,15.0041365 C22.4830906,14.2652185 23.7476703,14.3317753 24.4865883,15.1527953 C24.8171128,15.5200448 25,15.9966413 25,16.4907248 L25,34.5092752 C25,35.6138447 24.1045695,36.5092752 23,36.5092752 C22.5059164,36.5092752 22.02932,36.326388 21.6620705,35.9958635 L11.6517648,26.9865883 C10.8307447,26.2476703 10.7641879,24.9830906 11.5031059,24.1620705 C11.5500184,24.1099456 11.5996398,24.0603241 11.6517648,24.0134117 Z"/><path id="Path-2" fill="#8C8B8B" d="M24.6517648,24.0134117 L34.6620705,15.0041365 C35.4830906,14.2652185 36.7476703,14.3317753 37.4865883,15.1527953 C37.8171128,15.5200448 38,15.9966413 38,16.4907248 L38,34.5092752 C38,35.6138447 37.1045695,36.5092752 36,36.5092752 C35.5059164,36.5092752 35.02932,36.326388 34.6620705,35.9958635 L24.6517648,26.9865883 C23.8307447,26.2476703 23.7641879,24.9830906 24.5031059,24.1620705 C24.5500184,24.1099456 24.5996398,24.0603241 24.6517648,24.0134117 Z"/></g></g></g></g></svg>